<svg xmlns="http://www.w3.org/2000/svg" viewBox="0 0 500 500"><g id="freepik--Floor--inject-435"><path id="freepik--floor--inject-435" d="M102.2,451.87c81.65,45,214,45,295.66,0s81.64-117.86,0-162.82-214-45-295.66,0S20.56,406.91,102.2,451.87Z" style="fill:#f5f5f5"></path></g><g id="freepik--Shadows--inject-435"><path id="freepik--Shadow--inject-435" d="M85.54,420.16l6.12,3.53a6.67,6.67,0,0,0,6.06,0L278.51,319.31c1.68-1,1.68-2.53,0-3.5l-6.12-3.54a6.74,6.74,0,0,0-6.06,0L85.54,416.66C83.86,417.62,83.86,419.19,85.54,420.16Z" style="fill:#e0e0e0"></path><path id="freepik--shadow--inject-435" d="M351.07,390.49c17.69,9.24,46.37,9.25,64.06,0s17.68-24.22,0-33.46-46.37-9.24-64.06,0S333.38,381.25,351.07,390.49Z" style="fill:#e0e0e0"></path><path id="freepik--shadow--inject-435" d="M329.35,371.84c5.32,2.78,13.95,2.78,19.27,0s5.32-7.28,0-10.06-13.95-2.78-19.27,0S324,369.06,329.35,371.84Z" style="fill:#e0e0e0"></path></g><g id="freepik--Character--inject-435"><g id="freepik--character-boy--inject-435"><circle cx="379.07" cy="176.69" r="10.85" transform="translate(143.95 522.56) rotate(-80.78)" style="fill:#263238"></circle><path d="M366.16,210.55l-15.48,18-20.79-9-.4,11.26s17,7.95,19.63,8.49,5.15,1.12,7.43-.63c2.66-2,12.21-13.06,12.21-13.06Z" style="fill:#ffa8a7"></path><path d="M380.21,201.32c-6.16-.4-11,4.28-14.62,8.48s-8.19,10.8-8.19,10.8,2.49,7.27,9.05,9.47l11.31-13.43Z" style="fill:#e0e0e0"></path><rect x="397.41" y="360.21" width="7.64" height="13.08" style="fill:#ffa8a7"></rect><polygon points="378.56 364.14 370.92 364.4 370.54 350.56 378.17 350.3 378.56 364.14" style="fill:#ffa8a7"></polygon><path d="M404.54,256.53c0,7.3.95,51.51.95,51.51.17,2.1,2.14,6,1.72,14-.58,11-1.53,39.43-1.53,39.43s-3.58,3.55-8.64,0c0,0-6.92-39.39-8.28-50.24-1.2-9.48-3.23-35.21-3.23-35.21l-4.23,35.72s1.24,7.12,1.52,12.14-4.14,30.54-4.14,30.54a8.36,8.36,0,0,1-8.32.31s-3.29-38.89-4.08-43.43,2.53-54.8,2.53-54.8Z" style="fill:#37474f"></path><path d="M397.2,203.76a8.36,8.36,0,0,1,6.72,6.41,27.12,27.12,0,0,1,.62,5.8v40.56c-5.35,5.83-24,8.55-35.73,0,0,0,.23-35.82,1.11-41.71,1.52-10.22,6.41-13.87,11.33-13.49L393,203Z" style="fill:#f0f0f0"></path><path d="M397.82,184.4s-1.76,8.25-2.46,9.61a3.73,3.73,0,0,1-2.16,1.74l.12-5.8Z" style="fill:#263238"></path><path d="M395.61,172.57a4.05,4.05,0,0,1,3.37,1.18c1.45,1.48.64,6.11-1.16,10.65l-3.31.38Z" style="fill:#263238"></path><path d="M393.52,184.78c.66.4,1.61-.88,2.43-1.73s3.49-2,4.82.78-1.18,6.64-3.28,7.3c-3.63,1.14-4.17-1.18-4.17-1.18L393,203a11.66,11.66,0,0,1-8.8,6.68c-6.43.88-5.11-4.42-3-7v-4a22.76,22.76,0,0,1-4.89.25c-2.67-.41-4.35-2.52-5.15-5.4-1.3-4.64-1.8-8.38-.7-17.5,1.21-10,12.84-10.1,19.11-6.15S393.52,184.78,393.52,184.78Z" style="fill:#ffa8a7"></path><path d="M393.52,185.9c.33,0,1.6-2.1,2.43-2.85,1.14-1.05-.34-10.48-.34-10.48a4.45,4.45,0,0,0-1.1-4.77c-1.57-1.73-4.19-1.92-8.67-2.62-2.34-.37-5.9-1-8.25-1.47-2.8-.52-5.12-1.07-7.09.65a5,5,0,0,0-1.38,5.56,4.78,4.78,0,0,0,.8,1.19,4.66,4.66,0,0,0,2,1.39s1.22,1.08,5.47,1.6a62.68,62.68,0,0,0,11.77-.23c1.23-.16,1.49,1,2.16,4.29C391.91,181,392.4,185.88,393.52,185.9Z" style="fill:#263238"></path><path d="M395.61,173.3l4-2.15a2.22,2.22,0,0,0-3-1A2.4,2.4,0,0,0,395.61,173.3Z" style="fill:#263238"></path><path d="M381.26,198.7s5.95-1.2,8-2.31a6.91,6.91,0,0,0,2.88-2.84,9.33,9.33,0,0,1-1.64,3.35c-1.52,1.95-9.27,3.38-9.27,3.38Z" style="fill:#f28f8f"></path><path d="M382.69,183.29a1.19,1.19,0,1,0,1.19-1.24A1.21,1.21,0,0,0,382.69,183.29Z" style="fill:#263238"></path><path d="M384,178.79l2.55,1.41a1.52,1.52,0,0,0-.59-2A1.43,1.43,0,0,0,384,178.79Z" style="fill:#263238"></path><path d="M381.8,191.53l-2.73,1a1.44,1.44,0,0,0,1.85.91A1.55,1.55,0,0,0,381.8,191.53Z" style="fill:#f28f8f"></path><path d="M372.05,179.78l2.33-1.79a1.41,1.41,0,0,0-2-.31A1.55,1.55,0,0,0,372.05,179.78Z" style="fill:#263238"></path><path d="M372.77,183a1.19,1.19,0,1,0,1.19-1.24A1.21,1.21,0,0,0,372.77,183Z" style="fill:#263238"></path><polygon points="378.84 181.82 378.45 189 374.71 187.72 378.84 181.82" style="fill:#f28f8f"></polygon><path d="M397.41,369.52v-1.1c-.74.32-2.43,6.8-5.47,9.57-2.41,2.19-5.69,4.73-6.53,7.18s4.58,4,6.83,3.56c2.62-.46,7.15-2.3,8.29-4s1.67-4.23,2.59-5.48,3.06-2.65,3.56-4.1c.28-.79-.05-2.54-.44-4s-.73-2.83-1.19-2.71c0,.17,0,.84,0,.84a6.11,6.11,0,0,1-3.82,1.29C400.11,370.59,397.4,370.37,397.41,369.52Z" style="fill:#263238"></path><path d="M370.84,362c-.4,0-.72.58-1.59,1.52a16.74,16.74,0,0,1-4.5,3.24c-2.86,1.43-8.42,3.63-10.94,4.77-1.57.7-1.5,2.6.13,3.68s5.55,1.86,10.26.81c2.57-.57,5.91-2.94,8-2.82s6.08.1,7.64-1,.94-3.38.49-5.35c-.48-2.16-1.17-5.46-1.88-5.31l0,.68c-.92,1.39-5.59,2-7.61.93Z" style="fill:#263238"></path><path d="M385.53,276.05a28.35,28.35,0,0,1-10.64-6.1s2.06,3.84,8.16,7.42l-1.75,34.4Z" style="fill:#263238"></path></g><path d="M353.09,329l-12.86,37.53a1.21,1.21,0,0,1-2.29,0L325.25,328.7Z" style="fill:#ffa8a7"></path><path d="M337.94,366.53a1.21,1.21,0,0,0,2.29,0l2.51-7.33h0a6.67,6.67,0,0,1-6.95-.39l-.56-.38Z" style="fill:#263238"></path><path d="M325.74,161.36V165l0,4.43-.45,159.24c2.94,3.36,7.3,5.07,11.72,5.52,6.73.7,13.64-1.51,16.1-5.21l.45-159.15,0-8.47C353.23,166.88,325.49,166.86,325.74,161.36Z" style="fill:#FFC100"></path><path d="M325.65,175.33v8.2c-.08,2.38,5,3.92,10.83,4.45,7.76.74,16.9-1.36,17-4.51l0-6.05,0-2.16c-.11,3.15-9.25,5.26-17,4.52-5.6-.52-10.5-2-10.78-4.19v0A.63.63,0,0,1,325.65,175.33Z" style="fill:#ebebeb"></path><path d="M325.67,177.38c-.2,5.52,27.62,5.45,27.82-.07l0-8.21c-.2,5.52-28,5.59-27.82.07Z" style="fill:#FFC100"></path><path d="M325.74,161.36l0,8.1c-.24,5.42,26.61,5.58,27.82.4a1,1,0,0,0,.05-.31l0-8.16C353.23,166.88,325.49,166.86,325.74,161.36Z" style="fill:#ebebeb"></path><path d="M353.52,169.86l0-8.47c-.15,2.48-5.83,4.33-12.13,4.55L341,334.35l-.75,32.19L353.09,329h0Z" style="opacity:0.1"></path><path d="M325.87,127l-.13,34.39c-.11,2.35,4.89,3.9,10.69,4.46,7.76.76,16.94-1.29,17.12-4.43,0,0,0,0,0,0l.12-34.5c0-6.86-13.92-8.59-22.23-5.73C328.33,122.18,326.12,124.09,325.87,127Z" style="fill:#f28f8f"></path><path d="M416.17,267.94a84.61,84.61,0,0,1-1.37,10.33c-2.29,8.82-5.22,11.47-9.13,11.73-6.23.41-6.27-1.92-3.47-5.94a20,20,0,0,0,2.78-5.74,14.53,14.53,0,0,1-3,1.93,2.14,2.14,0,0,1-2.81-.76c-.2-.42.88-.84,2.08-2.3,1.52-1.86,2.3-3.34,4.4-4.88a4.36,4.36,0,0,0,1.26-2.57c.32-1.26.54-21.27-.59-25.41L401,225.08c-4.36-3-9-17.8-2.37-21,6.22.7,10.76,8.84,17.55,34C417.33,242.56,416.87,261.1,416.17,267.94Z" style="fill:#ffa8a7"></path><path d="M397.2,203.76a8,8,0,0,0-2.69,6c-.18,4.19,1.79,10.23,3,14s3.66,10.63,3.66,10.63,10.25-1.18,12.58-7.19c0,0-4.8-15.53-9.42-20.58A8.66,8.66,0,0,0,397.2,203.76Z" style="fill:#e0e0e0"></path><path d="M331.6,207.52s2.49-2,7.24-1.21c2.3.38,1.42,9.08-6,11.5-4.81,1.58-5.79.77-7.34,4.72,0,0-2.9-.6-2.2-5a24.79,24.79,0,0,1,5.86-12.27c2.12-2.5,2.27-4.6,3.31-3.89s.45,2.87.45,2.87Z" style="fill:#ffa8a7"></path></g></svg>